<svg xmlns="http://www.w3.org/2000/svg" version="1.1" xmlns:xlink="http://www.w3.org/1999/xlink" xmlns:svgjs="http://svgjs.com/svgjs" width="64" height="64"><svg xmlns="http://www.w3.org/2000/svg" height="64" width="64" viewBox="0 0 64 64"><title>popcorn</title><g fill="#db0e63" class="nc-icon-wrapper"><path d="M52.475,17A8.991,8.991,0,0,0,39.087,6.463a8.983,8.983,0,0,0-14.174,0A8.984,8.984,0,0,0,11.525,17Z" data-color="color-2"></path> <polygon points="23.002 61 31 61 31 19 20.002 19 23.002 61" fill="#db0e63"></polygon> <polygon points="43.998 19 33 19 33 61 40.998 61 43.998 19" fill="#db0e63"></polygon> <path d="M18,19H9a1,1,0,0,0-.989,1.148l6,40A1,1,0,0,0,15,61h6Z" fill="#db0e63"></path> <path d="M55.758,19.348A1,1,0,0,0,55,19H46L43,61h6a1,1,0,0,0,.989-.852l6-40A1,1,0,0,0,55.758,19.348Z" fill="#db0e63"></path></g></svg><style>@media (prefers-color-scheme: light) { :root { filter: none; } }
</style></svg>